<svg width="100" height="91" viewBox="0 0 100 91" fill="none" xmlns="http://www.w3.org/2000/svg">
<mask id="path-1-inside-1" fill="white">
<path fill-rule="evenodd" clip-rule="evenodd" d="M87.4127 37.3598L99.9127 87.3598C100.131 88.235 99.935 89.1621 99.3797 89.8732C99.0326 90.3177 98.5698 90.6467 98.0512 90.831C97.74 90.9416 97.4088 91 97.0705 91C97.0705 91 97.0704 91 97.0703 91H50H2.92989C2.02774 91 1.17598 90.5844 0.620711 89.8732C0.0656332 89.1623 -0.131046 88.235 0.0877035 87.3598L12.5877 37.3598C12.9137 36.0557 14.0856 35.1406 15.4299 35.1406H50H84.5703H84.5705C85.9148 35.1406 87.0867 36.0557 87.4127 37.3598Z"/>
</mask>
<path fill-rule="evenodd" clip-rule="evenodd" d="M87.4127 37.3598L99.9127 87.3598C100.131 88.235 99.935 89.1621 99.3797 89.8732C99.0326 90.3177 98.5698 90.6467 98.0512 90.831C97.74 90.9416 97.4088 91 97.0705 91C97.0705 91 97.0704 91 97.0703 91H50H2.92989C2.02774 91 1.17598 90.5844 0.620711 89.8732C0.0656332 89.1623 -0.131046 88.235 0.0877035 87.3598L12.5877 37.3598C12.9137 36.0557 14.0856 35.1406 15.4299 35.1406H50H84.5703H84.5705C85.9148 35.1406 87.0867 36.0557 87.4127 37.3598Z" fill="white"/>
<path d="M99.9127 87.3598L103.793 86.3898L103.793 86.3896L99.9127 87.3598ZM87.4127 37.3598L83.5321 38.3298L83.5321 38.3299L87.4127 37.3598ZM99.3797 89.8732L96.227 87.4115L96.2269 87.4115L99.3797 89.8732ZM98.0512 90.831L99.3904 94.6001L98.0512 90.831ZM0.620711 89.8732L-2.53212 92.3349L-2.53203 92.335L0.620711 89.8732ZM0.0877035 87.3598L-3.79287 86.3896L-3.79292 86.3898L0.0877035 87.3598ZM12.5877 37.3598L16.4683 38.3299L16.4683 38.3298L12.5877 37.3598ZM103.793 86.3896L91.2933 36.3896L83.5321 38.3299L96.0321 88.3299L103.793 86.3896ZM102.532 92.335C103.846 90.6527 104.311 88.4595 103.793 86.3898L96.0321 88.3297C95.9523 88.0104 96.0239 87.6715 96.227 87.4115L102.532 92.335ZM99.3904 94.6001C100.617 94.1645 101.712 93.3862 102.532 92.335L96.2269 87.4115C96.3537 87.2492 96.523 87.129 96.7119 87.0619L99.3904 94.6001ZM97.0705 95C97.8703 95 98.6542 94.8617 99.3904 94.6001L96.7119 87.0619C96.8258 87.0214 96.9473 87 97.0705 87V95ZM97.0703 95C97.0704 95 97.0704 95 97.0704 95C97.0704 95 97.0704 95 97.0704 95C97.0704 95 97.0704 95 97.0704 95H97.0704C97.0704 95 97.0704 95 97.0704 95C97.0704 95 97.0704 95 97.0704 95C97.0704 95 97.0704 95 97.0704 95C97.0704 95 97.0704 95 97.0704 95C97.0704 95 97.0704 95 97.0704 95C97.0704 95 97.0704 95 97.0704 95H97.0704H97.0704C97.0704 95 97.0704 95 97.0704 95C97.0704 95 97.0704 95 97.0704 95C97.0704 95 97.0704 95 97.0705 95C97.0705 95 97.0705 95 97.0705 95C97.0705 95 97.0705 95 97.0705 95C97.0705 95 97.0705 95 97.0705 95H97.0705C97.0705 95 97.0705 95 97.0705 95C97.0705 95 97.0705 95 97.0705 95C97.0705 95 97.0705 95 97.0705 95V87C97.0705 87 97.0705 87 97.0705 87C97.0705 87 97.0705 87 97.0705 87C97.0705 87 97.0705 87 97.0705 87H97.0705C97.0705 87 97.0705 87 97.0705 87C97.0705 87 97.0705 87 97.0705 87C97.0705 87 97.0705 87 97.0705 87C97.0704 87 97.0704 87 97.0704 87C97.0704 87 97.0704 87 97.0704 87C97.0704 87 97.0704 87 97.0704 87H97.0704H97.0704C97.0704 87 97.0704 87 97.0704 87C97.0704 87 97.0704 87 97.0704 87C97.0704 87 97.0704 87 97.0704 87C97.0704 87 97.0704 87 97.0704 87C97.0704 87 97.0704 87 97.0704 87C97.0704 87 97.0704 87 97.0704 87H97.0704C97.0704 87 97.0704 87 97.0704 87C97.0704 87 97.0704 87 97.0704 87C97.0704 87 97.0704 87 97.0703 87V95ZM50 95H97.0703V87H50V95ZM2.92989 95H50V87H2.92989V95ZM-2.53203 92.335C-1.21885 94.0168 0.795837 95 2.92989 95V87C3.25965 87 3.57082 87.152 3.77345 87.4115L-2.53203 92.335ZM-3.79292 86.3898C-4.3103 88.4598 -3.84524 90.6531 -2.53212 92.3349L3.77354 87.4116C3.9765 87.6716 4.04821 88.0101 3.96832 88.3297L-3.79292 86.3898ZM8.70713 36.3896L-3.79287 86.3896L3.96827 88.3299L16.4683 38.3299L8.70713 36.3896ZM15.4299 31.1406C12.2501 31.1406 9.4782 33.3049 8.7071 36.3898L16.4683 38.3298C16.3492 38.8064 15.9211 39.1406 15.4299 39.1406V31.1406ZM50 31.1406H15.4299V39.1406H50V31.1406ZM84.5703 31.1406H50V39.1406H84.5703V31.1406ZM84.5705 31.1406H84.5703V39.1406H84.5705V31.1406ZM91.2933 36.3898C90.5222 33.3049 87.7504 31.1406 84.5705 31.1406V39.1406C84.0793 39.1406 83.6512 38.8064 83.5321 38.3298L91.2933 36.3898Z" fill="black" mask="url(#path-1-inside-1)"/>
<path d="M54.7862 73.1947L68.1055 87H59.4103L50.4406 77.7016L34.0501 60.7083L8.68991 87H4L6 80L29.7046 56.2035L15.5 42L16 39H21.8023L50.4406 68.6899L79.0789 39H84L84.5 42L54.7862 73.1947Z" fill="#C7B1A4"/>
<path d="M50 3C41.1769 3 34 10.3589 34 19.4057C34 28.9349 43.8932 40.3795 48.0742 48.7895C48.4432 49.533 49.187 50 50 50C50.813 50 51.5568 49.533 51.9258 48.7895C56.1068 40.3795 66 28.9349 66 19.4057C66 10.3589 58.8231 3 50 3ZM50 26.3522C46.2638 26.3522 43.2252 23.2366 43.2252 19.4057C43.2252 15.5747 46.2638 12.4591 50 12.4591C53.7362 12.4591 56.7748 15.5747 56.7748 19.4057C56.7748 23.2366 53.7362 26.3522 50 26.3522Z" fill="#C7B1A4"/>
<path d="M49.9924 1C45.2349 1.00423 40.6724 3.01404 37.3012 6.59046C33.93 10.1669 32.0242 15.0193 32 20.0878C32 27.6871 36.0017 34.0497 38.9342 38.6874L39.4688 39.5336C42.3865 44.0389 45.5165 48.3838 48.8468 52.5517L50.0076 54L51.1684 52.5517C54.4983 48.3835 57.6283 44.0386 60.5465 39.5336L61.081 38.6712C63.9983 34.0335 68 27.6871 68 20.0878C67.9758 15.0165 66.0679 10.1616 62.6934 6.58472C59.3189 3.00784 54.7524 0.999934 49.9924 1ZM58.5303 36.7998L57.9805 37.6623C55.3534 41.8606 51.871 46.5634 49.9924 48.8904C48.1901 46.5634 44.6313 41.8606 42.0042 37.6623L41.4697 36.7998C38.7662 32.5038 35.0547 26.6294 35.0547 20.0227C35.0547 17.9328 35.4411 15.8633 36.1918 13.9324C36.9425 12.0016 38.0428 10.2472 39.4299 8.76937C40.8169 7.29155 42.4637 6.11929 44.276 5.3195C46.0883 4.51972 48.0307 4.10807 49.9924 4.10807C51.954 4.10807 53.8964 4.51972 55.7087 5.3195C57.5211 6.11929 59.1678 7.29155 60.5549 8.76937C61.942 10.2472 63.0423 12.0016 63.7929 13.9324C64.5436 15.8633 64.93 17.9328 64.93 20.0227C64.93 26.6945 61.2338 32.5689 58.5303 36.7998Z" fill="black" stroke="black"/>
</svg>
