<svg width="100" height="102" viewBox="0 0 100 102" fill="none" xmlns="http://www.w3.org/2000/svg">
<path d="M49.7693 62.7637C63.2808 62.7637 74.2341 52.4695 74.2341 39.7708C74.2341 27.0722 63.2808 16.778 49.7693 16.778C36.2579 16.778 25.3046 27.0722 25.3046 39.7708C25.3046 52.4695 36.2579 62.7637 49.7693 62.7637Z" stroke="#1E1E1C" stroke-width="4" stroke-miterlimit="10"/>
<mask id="path-2-inside-1" fill="white">
<path d="M78.1933 66.4053C78.1933 66.4053 81.8323 87.2349 100 90.8937H84.4065L84.8445 102C84.8445 102 63.8777 94.0083 63.5818 75.2331"/>
</mask>
<path d="M78.1933 66.4053C78.1933 66.4053 81.8323 87.2349 100 90.8937H84.4065L84.8445 102C84.8445 102 63.8777 94.0083 63.5818 75.2331" fill="#C7B1A4"/>
<path d="M100 90.8937V94.8937L100.79 86.9724L100 90.8937ZM84.4065 90.8937V86.8937H80.2457L80.4096 91.0513L84.4065 90.8937ZM84.8445 102L83.4198 105.738L89.0801 107.895L88.8414 101.842L84.8445 102ZM78.1933 66.4053C74.2529 67.0937 74.2532 67.0953 74.2535 67.097C74.2537 67.0977 74.254 67.0995 74.2542 67.1009C74.2547 67.1037 74.2552 67.1067 74.2558 67.1101C74.2571 67.1169 74.2585 67.1249 74.2602 67.1342C74.2636 67.1528 74.2679 67.1765 74.2733 67.2051C74.2841 67.2622 74.2989 67.339 74.3182 67.4343C74.3568 67.6248 74.4133 67.8896 74.4904 68.2191C74.6445 68.8774 74.882 69.7983 75.2261 70.9048C75.9114 73.1085 77.0349 76.0994 78.7959 79.2358C82.3087 85.4919 88.5802 92.6742 99.2103 94.815L100.79 86.9724C93.252 85.4544 88.6202 80.3925 85.7715 75.3191C84.3519 72.7907 83.4301 70.3456 82.8653 68.5293C82.5844 67.6259 82.3957 66.8909 82.2798 66.3958C82.222 66.1486 82.1825 65.9623 82.1589 65.8459C82.1471 65.7877 82.1393 65.7471 82.1352 65.7252C82.1332 65.7142 82.132 65.708 82.1318 65.7065C82.1316 65.7058 82.1317 65.7063 82.132 65.708C82.1322 65.7089 82.1324 65.7101 82.1326 65.7115C82.1328 65.7123 82.133 65.7136 82.1331 65.714C82.1333 65.7154 82.1336 65.7169 78.1933 66.4053ZM100 86.8937H84.4065V94.8937H100V86.8937ZM80.4096 91.0513L80.8476 102.158L88.8414 101.842L88.4034 90.7361L80.4096 91.0513ZM84.8445 102C86.2692 98.2623 86.2705 98.2628 86.2718 98.2633C86.2721 98.2634 86.2733 98.2639 86.2739 98.2641C86.2752 98.2646 86.2761 98.265 86.2768 98.2652C86.278 98.2657 86.2781 98.2658 86.2769 98.2653C86.2746 98.2644 86.2674 98.2616 86.2555 98.2569C86.2317 98.2475 86.1891 98.2304 86.129 98.2057C86.0086 98.1563 85.8184 98.0763 85.5683 97.965C85.0673 97.7423 84.33 97.3962 83.4347 96.9224C81.6351 95.9701 79.2457 94.5274 76.8661 92.5689C72.0691 88.6205 67.7035 82.9278 67.5813 75.17L59.5823 75.2961C59.7559 86.3135 66.0217 94.0043 71.7821 98.7456C74.6812 101.132 77.552 102.861 79.6929 103.993C80.7679 104.562 81.6709 104.987 82.3177 105.275C82.6415 105.419 82.902 105.529 83.089 105.606C83.1824 105.644 83.2576 105.674 83.3132 105.696C83.3409 105.707 83.3638 105.716 83.3817 105.723C83.3906 105.726 83.3982 105.729 83.4046 105.732C83.4078 105.733 83.4106 105.734 83.4132 105.735C83.4144 105.736 83.4161 105.736 83.4167 105.737C83.4183 105.737 83.4198 105.738 84.8445 102Z" fill="#1E1E1C" mask="url(#path-2-inside-1)"/>
<mask id="path-4-inside-2" fill="white">
<path d="M21.6462 67.1708C21.6462 67.1708 18.1678 87.2348 0 90.8936H15.5935L15.1555 102C15.1555 102 36.1224 94.4728 36.4182 75.6995"/>
</mask>
<path d="M21.6462 67.1708C21.6462 67.1708 18.1678 87.2348 0 90.8936H15.5935L15.1555 102C15.1555 102 36.1224 94.4728 36.4182 75.6995" fill="#C7B1A4"/>
<path d="M0 90.8936L-0.789706 86.9723L0 94.8936V90.8936ZM15.5935 90.8936L19.5904 91.0512L19.7543 86.8936H15.5935V90.8936ZM15.1555 102L11.1586 101.842L10.9249 107.769L16.5071 105.765L15.1555 102ZM21.6462 67.1708C17.705 66.4875 17.7052 66.4859 17.7055 66.4845C17.7056 66.4841 17.7058 66.4827 17.7059 66.4819C17.7062 66.4803 17.7064 66.479 17.7066 66.478C17.707 66.476 17.7071 66.4752 17.707 66.4756C17.7069 66.4763 17.7059 66.4817 17.7041 66.4916C17.7004 66.5114 17.6932 66.5491 17.6821 66.6038C17.66 66.7132 17.6226 66.8898 17.5673 67.125C17.4566 67.5962 17.2752 68.298 17.0033 69.1621C16.4565 70.8995 15.5592 73.2423 14.1666 75.6694C11.382 80.5222 6.79718 85.4444 -0.789706 86.9723L0.789706 94.8149C11.3706 92.684 17.6088 85.7447 21.1054 79.6509C22.8533 76.6046 23.9611 73.7027 24.6343 71.5637C24.9723 70.4897 25.2047 69.5955 25.3552 68.9551C25.4305 68.6345 25.4855 68.3765 25.5232 68.1902C25.5421 68.097 25.5566 68.0217 25.5672 67.9653C25.5725 67.9371 25.5768 67.9136 25.5801 67.8951C25.5818 67.8858 25.5832 67.8777 25.5844 67.8708C25.585 67.8674 25.5856 67.8643 25.5861 67.8615C25.5863 67.8601 25.5867 67.8582 25.5868 67.8575C25.5871 67.8558 25.5874 67.854 21.6462 67.1708ZM0 94.8936H15.5935V86.8936H0V94.8936ZM11.5966 90.736L11.1586 101.842L19.1524 102.158L19.5904 91.0512L11.5966 90.736ZM15.1555 102C16.5071 105.765 16.5086 105.764 16.5102 105.764C16.5109 105.763 16.5126 105.763 16.5138 105.762C16.5164 105.761 16.5193 105.76 16.5226 105.759C16.529 105.757 16.5368 105.754 16.5458 105.751C16.5638 105.744 16.5868 105.736 16.6148 105.725C16.6707 105.704 16.7462 105.676 16.8401 105.639C17.0278 105.566 17.2892 105.462 17.6139 105.324C18.2625 105.05 19.1677 104.644 20.2451 104.098C22.3906 103.01 25.269 101.341 28.1767 99.0116C33.9611 94.3781 40.2439 86.7954 40.4177 75.7625L32.4187 75.6364C32.2967 83.3769 27.9482 88.9445 23.1752 92.7678C20.8042 94.6671 18.4223 96.0527 16.6273 96.9629C15.7345 97.4156 14.9993 97.7443 14.5002 97.9552C14.2509 98.0605 14.0616 98.136 13.942 98.1825C13.8823 98.2057 13.84 98.2217 13.8166 98.2304C13.8049 98.2348 13.7979 98.2374 13.7957 98.2381C13.7946 98.2385 13.7948 98.2385 13.7961 98.238C13.7968 98.2377 13.7978 98.2374 13.7991 98.2369C13.7998 98.2367 13.801 98.2362 13.8013 98.2361C13.8026 98.2357 13.804 98.2352 15.1555 102Z" fill="#1E1E1C" mask="url(#path-4-inside-2)"/>
<path d="M49.6194 77.7777C71.8844 77.7777 89.9336 60.8143 89.9336 39.8888C89.9336 18.9634 71.8844 2 49.6194 2C27.3545 2 9.30527 18.9634 9.30527 39.8888C9.30527 60.8143 27.3545 77.7777 49.6194 77.7777Z" stroke="#1E1E1C" stroke-width="4" stroke-miterlimit="10"/>
<path d="M38.9302 41.3322L44.5043 46.8204L59.3686 32.1852" stroke="#C7B1A4" stroke-width="4"/>
</svg>
