<svg width="84" height="104" viewBox="0 0 84 104" fill="none" xmlns="http://www.w3.org/2000/svg">
<line x1="4" y1="70" x2="37" y2="70" stroke="#C7B1A4" stroke-width="4" stroke-linecap="round"/>
<line x1="4" y1="60" x2="45" y2="60" stroke="#C7B1A4" stroke-width="4" stroke-linecap="round"/>
<line x1="7" y1="81" x2="27" y2="81" stroke="#C7B1A4" stroke-width="4" stroke-linecap="round"/>
<path d="M43.1494 102H61.7154C62.6411 102 63.5292 101.644 64.1871 101.012C81.5665 84.2719 90.1002 58.9038 71.646 45.2544C51.9815 30.7187 66.1264 13.1225 71.7443 4.7312C72.5581 3.5155 72.1071 2 70.5611 2H13.4389C11.8929 2 11.442 3.5155 12.2557 4.7312C17.8736 13.1258 32.0016 30.722 12.3506 45.2544C-6.10019 58.9038 2.43694 84.2719 19.8096 101.012C20.4691 101.644 21.3581 101.999 22.2846 102H43.1494Z" stroke="black" stroke-width="4" stroke-linecap="round" stroke-linejoin="round"/>
</svg>
