<svg width="582" height="134" viewBox="0 0 582 134" fill="none" xmlns="http://www.w3.org/2000/svg">
<path fill-rule="evenodd" clip-rule="evenodd" d="M321.055 0.501889C392.308 3.94122 316.983 27.7397 366.38 39.1916C482.078 35.9615 546.685 47.4533 567.49 57.6343C589.108 68.2135 585.752 80.9225 562.858 91.3796C541.24 101.254 507.778 110.65 468.054 117.523C425.14 124.948 376.201 132.292 321.055 133.217C265.504 134.149 235.537 106.598 187.572 100.565C132.849 93.6807 50.7837 107.339 20.6637 95.429C-10.9947 82.9108 -2.13698 67.2732 19.5678 53.8292C41.033 40.5337 70.1205 4.06358 163.03 23.0408C243.669 26.6746 252.209 -2.82125 321.055 0.501889Z" fill="#C7B1A4"/>
</svg>
