<svg width="332" height="164" viewBox="0 0 332 164" fill="none" xmlns="http://www.w3.org/2000/svg">
<path fill-rule="evenodd" clip-rule="evenodd" d="M183.145 0.322642C223.791 4.56362 180.822 33.9091 209 48.0303C275 44.0472 311.855 58.2176 323.723 70.7716C336.055 83.8167 334.14 99.4879 321.08 112.382C308.749 124.558 289.66 136.144 267 144.619C242.52 153.775 214.603 162.831 183.145 163.972C151.456 165.121 134.361 131.148 107 123.708C75.7832 115.22 28.9694 132.061 11.7876 117.376C-6.27192 101.94 -1.21903 82.6572 11.1624 66.0797C23.4071 49.6852 40 4.71451 93 28.115C139 32.5957 143.872 -3.77507 183.145 0.322642Z" fill="#C7B1A4"/>
</svg>
