<svg width="694" height="153" viewBox="0 0 694 153" fill="none" xmlns="http://www.w3.org/2000/svg">
<path fill-rule="evenodd" clip-rule="evenodd" d="M346.5 0.239985C435.995 3.62759 525.839 45.9602 587.883 57.24C733.202 54.0584 681 79.0234 681 79.0234C681 79.0234 709.755 131.46 681 141.759C653.848 151.485 637.776 134.99 587.883 141.759C533.982 149.073 485.764 124.145 416.5 125.056C346.727 125.974 319.244 157.683 259 151.74C190.267 144.96 63.785 131.728 25.9539 119.998C-13.8096 107.668 -2.68407 92.2652 24.5775 79.0234C51.538 65.9278 57.8042 6.04819 174.5 24.74C275.783 28.3192 260.029 -3.03319 346.5 0.239985Z" fill="#C7B1A4"/>
</svg>
