<svg width="231" height="106" viewBox="0 0 231 106" fill="none" xmlns="http://www.w3.org/2000/svg">
<path d="M61.2635 80.2765H51.6117C51.1299 80.2772 50.6675 80.0867 50.3259 79.7468C41.2888 70.7905 36.851 57.2146 46.4462 49.9101C56.664 42.1304 49.3171 32.7152 46.3957 28.2209C45.9711 27.5719 46.2076 26.7612 47.0022 26.7612H76.7116C77.5202 26.7612 77.7507 27.5699 77.3181 28.2209C74.3967 32.7152 67.0497 42.1304 77.2675 49.9101C86.8627 57.2146 82.425 70.7905 73.3878 79.7468C73.0463 80.0867 72.5838 80.2772 72.102 80.2765H61.2635Z" fill="#C7B1A4" stroke="black" stroke-width="2" stroke-linecap="round" stroke-linejoin="round"/>
<path d="M107.339 35.2005C107.339 35.2005 95.6642 12.7435 95.153 3.53533C94.8525 -1.85435 111.598 22.3714 117.679 30.7402C117.787 30.8765 117.877 31.0257 117.948 31.1844C128.319 57.8209 114.564 88.6858 112.865 94.8235C112.647 95.6156 112.397 96.3979 112.65 97.1819C113.45 99.6546 114.794 102.772 119.444 104.278" stroke="white" stroke-width="2" stroke-linecap="round" stroke-linejoin="round"/>
<path d="M99.5545 18.3962C99.5545 18.3962 89.5085 7.86994 87.5927 9.28106C85.6769 10.6922 99.2099 32.914 106.265 38.4507" stroke="white" stroke-width="2" stroke-linecap="round" stroke-linejoin="round"/>
<path d="M97.1798 27.7859C97.1798 27.7859 84.4013 16.5051 83.4606 19.966C82.9086 21.9961 104.276 45.8479 104.276 45.8479" stroke="white" stroke-width="2" stroke-linecap="round" stroke-linejoin="round"/>
<path d="M110.574 65.1199C110.574 65.1199 115.01 36.8976 108.451 34.3792C106.391 33.9676 102.806 52.9246 100.657 61.3276C100.533 61.8077 93.1245 78.8816 99.8829 90.5233" stroke="white" stroke-width="2" stroke-linecap="round" stroke-linejoin="round"/>
<path d="M16.1598 71.8338C16.1598 71.8338 27.8341 94.294 28.3453 103.502C28.6458 108.892 11.9003 84.6661 5.81973 76.2974C5.71181 76.1611 5.62129 76.0118 5.55025 75.8532C-4.8208 49.2167 8.93432 18.3518 10.6361 12.2157C10.855 11.422 11.1049 10.6396 10.8517 9.85569C10.0482 7.38297 8.70403 4.26512 4.05421 2.75928" stroke="white" stroke-width="2" stroke-linecap="round" stroke-linejoin="round"/>
<path d="M23.9439 88.6431C23.9439 88.6431 33.9916 99.1676 35.9058 97.7533C37.8199 96.3389 24.2885 74.1301 17.233 68.5869" stroke="white" stroke-width="2" stroke-linecap="round" stroke-linejoin="round"/>
<path d="M26.3154 79.2522C26.3154 79.2522 39.0938 90.5346 40.0345 87.0738C40.5866 85.042 19.2189 61.1919 19.2189 61.1919" stroke="white" stroke-width="2" stroke-linecap="round" stroke-linejoin="round"/>
<path d="M12.9228 41.9178C12.9228 41.9178 8.48859 70.1402 15.046 72.6603C17.1055 73.0702 20.6905 54.1132 22.8398 45.7118C22.964 45.2333 30.3707 28.1578 23.614 16.5161" stroke="white" stroke-width="2" stroke-linecap="round" stroke-linejoin="round"/>
<path d="M146.132 39.6611H147.602V50.0959H146.132V39.6611ZM146.849 39.6611H151.981V41.0526H146.849V39.6611Z" fill="white"/>
<path d="M154.945 49.7267C154.394 49.4118 153.946 48.943 153.656 48.3776C153.342 47.7513 153.186 47.0578 153.201 46.3573V43.3995C153.186 42.699 153.342 42.0055 153.656 41.3792C153.946 40.8138 154.394 40.345 154.945 40.0302C155.538 39.7169 156.198 39.5532 156.868 39.5532C157.539 39.5532 158.199 39.7169 158.791 40.0302C159.343 40.345 159.791 40.8138 160.08 41.3792C160.394 42.0055 160.551 42.699 160.536 43.3995V46.3573C160.55 47.0578 160.394 47.7513 160.08 48.3776C159.791 48.943 159.343 49.4118 158.791 49.7267C158.199 50.0399 157.539 50.2036 156.868 50.2036C156.198 50.2036 155.538 50.0399 154.945 49.7267ZM158.006 48.4707C158.335 48.2754 158.599 47.9882 158.767 47.6443C158.953 47.2587 159.046 46.8345 159.036 46.4063V43.3489C159.045 42.9208 158.953 42.4966 158.767 42.1109C158.598 41.7707 158.333 41.487 158.006 41.2943C157.657 41.1036 157.266 41.0036 156.868 41.0036C156.471 41.0036 156.079 41.1036 155.731 41.2943C155.404 41.4874 155.139 41.771 154.97 42.1109C154.785 42.497 154.693 42.921 154.702 43.3489V46.4063C154.693 46.8343 154.784 47.2583 154.97 47.6443C155.137 47.9882 155.402 48.2754 155.731 48.4707C156.079 48.6614 156.471 48.7614 156.868 48.7614C157.266 48.7614 157.657 48.6614 158.006 48.4707V48.4707Z" fill="white"/>
<path d="M162.762 39.6611H164.232V50.0959H162.762V39.6611ZM163.673 44.2603H169.465V45.6535H163.673V44.2603ZM168.69 39.6611H170.16V50.0959H168.69V39.6611Z" fill="white"/>
<path d="M173.9 46.4423C173.431 46.1886 173.053 45.7931 172.821 45.3121C172.559 44.7504 172.432 44.1351 172.45 43.5156V39.6611H173.92V43.5809C173.92 44.1591 174.08 44.606 174.4 44.9218C174.727 45.2386 175.173 45.3954 175.757 45.3954C176.437 45.3954 176.963 45.2245 177.337 44.8826C177.71 44.5407 177.896 44.0589 177.895 43.4372V42.6108H178.356V43.3865C178.371 44.0242 178.26 44.6586 178.029 45.2533C177.844 45.7325 177.517 46.1438 177.092 46.4325C176.65 46.7134 176.134 46.8551 175.61 46.8392C175.016 46.854 174.427 46.7175 173.9 46.4423V46.4423ZM177.89 39.6611H179.36V50.0959H177.89V39.6611Z" fill="white"/>
<path d="M184.779 39.6611H186.029L189.875 50.0959H188.296L185.403 41.6765L182.511 50.0959H180.933L184.779 39.6611ZM182.705 46.4146H188.196V47.8061H182.705V46.4146Z" fill="white"/>
<path d="M191.456 39.6609H192.926V50.0957H191.456V39.6609ZM192.209 44.6554H195.547C195.84 44.6616 196.129 44.5846 196.38 44.4332C196.623 44.2808 196.816 44.0612 196.936 43.8012C197.072 43.5073 197.14 43.1861 197.133 42.8621C197.14 42.5348 197.073 42.2103 196.936 41.9132C196.815 41.653 196.622 41.433 196.38 41.2795C196.13 41.1251 195.841 41.0462 195.547 41.0524H192.209V39.6609H195.497C196.07 39.6486 196.636 39.7859 197.14 40.0594C197.609 40.3182 197.992 40.7082 198.242 41.1815C198.5 41.7033 198.634 42.2775 198.634 42.8596C198.634 43.4417 198.5 44.0159 198.242 44.5378C197.991 45.0088 197.608 45.3965 197.14 45.6533C196.635 45.9242 196.069 46.0603 195.497 46.0485H192.209V44.6554Z" fill="white"/>
<path d="M200.679 39.6611H202.149V50.0959H200.679V39.6611ZM201.59 44.2603H207.382V45.6535H201.59V44.2603ZM206.608 39.6611H208.077V50.0959H206.608V39.6611Z" fill="white"/>
<path d="M213.361 39.6611H214.609L218.457 50.0959H216.877L213.985 41.6765L211.092 50.0959H209.513L213.361 39.6611ZM211.287 46.4146H216.776V47.8061H211.287V46.4146Z" fill="white"/>
<path d="M222.233 45.2456L223.69 45.5722L221.155 50.093H219.419L222.233 45.2456ZM221.63 45.8989L220.944 45.5118C220.491 45.2574 220.12 44.8774 219.878 44.4175C219.628 43.9069 219.499 43.3461 219.499 42.7778C219.499 42.2095 219.628 41.6487 219.878 41.138C220.118 40.678 220.487 40.2974 220.939 40.0421C221.427 39.7766 221.975 39.6431 222.53 39.655H225.96V41.0482H222.473C222.209 41.0426 221.95 41.1179 221.73 41.2638C221.511 41.4143 221.341 41.6247 221.24 41.8697C221.005 42.4522 221.005 43.1033 221.24 43.6859C221.342 43.9304 221.512 44.1407 221.73 44.2918C221.949 44.4364 222.207 44.5115 222.47 44.5074H225.957V45.8989H221.63ZM225.132 39.655H226.602V50.0979H225.132V39.655Z" fill="white"/>
<path d="M149.235 57.2998H150.606V67.7346H149.175V59.9195L149.247 60.3785L146.678 66.2859H145.658L143.091 60.5222L143.163 59.9195V67.7346H141.735V57.2998H143.106L146.171 64.1888L149.235 57.2998Z" fill="white"/>
<path d="M155.889 57.2998H157.139L160.985 67.7346H159.405L156.513 59.3152L153.621 67.7346H152.041L155.889 57.2998ZM153.815 64.0532H159.301V65.4448H153.815V64.0532Z" fill="white"/>
<path d="M164.609 67.843L163.792 67.3628C163.245 67.041 162.802 66.5673 162.518 65.9991C162.206 65.363 162.051 64.6612 162.066 63.9526V61.0896C162.051 60.381 162.206 59.6792 162.518 59.0431C162.803 58.4744 163.245 57.9997 163.792 57.6761C164.372 57.3435 165.03 57.1741 165.698 57.1861C166.271 57.1801 166.838 57.3117 167.349 57.57C167.851 57.8255 168.283 58.1988 168.609 58.6577C168.954 59.1455 169.187 59.703 169.293 60.2909H167.794C167.705 59.9713 167.55 59.6741 167.338 59.4188C167.134 59.1695 166.878 58.9678 166.588 58.8275C166.272 58.6746 165.922 58.6036 165.57 58.621C165.219 58.6384 164.878 58.7437 164.578 58.9272C164.252 59.1396 163.994 59.4397 163.831 59.7928C163.647 60.1993 163.557 60.6419 163.567 61.0879V63.9526C163.558 64.3976 163.648 64.839 163.831 65.2445C163.991 65.6034 164.253 65.9066 164.586 66.1153C164.919 66.3239 165.306 66.4285 165.698 66.4156C166.007 66.4159 166.311 66.3496 166.592 66.2212C166.881 66.0889 167.136 65.8923 167.338 65.6463C167.555 65.383 167.711 65.0744 167.794 64.7431H169.293C169.188 65.3317 168.953 65.8896 168.605 66.3764C168.277 66.8351 167.844 67.2081 167.341 67.4641C166.832 67.7219 166.269 67.8535 165.698 67.8479L164.609 67.843Z" fill="white"/>
<path d="M169.935 57.2998H177.299V58.6913H169.935V57.2998ZM172.884 58.154H174.354V67.7346H172.884V58.154Z" fill="white"/>
<path d="M178.736 57.2998H180.206V67.7346H178.736V57.2998ZM179.447 57.2998H185.433V58.6913H179.44L179.447 57.2998ZM179.447 61.8565H184.65V63.2497H179.447V61.8565ZM179.447 66.343H185.433V67.7346H179.44L179.447 66.343Z" fill="white"/>
<path d="M187.52 57.2996H188.99V67.7343H187.52V57.2996ZM188.273 62.294H191.61C191.903 62.3007 192.192 62.2236 192.443 62.0719C192.685 61.9196 192.879 61.7 192.999 61.4398C193.135 61.1457 193.203 60.8247 193.197 60.5007C193.203 60.1736 193.136 59.8492 192.999 59.5518C192.878 59.2915 192.685 59.0716 192.443 58.9181C192.193 58.7633 191.903 58.6844 191.61 58.6911H188.273V57.2996H191.561C192.134 57.2872 192.7 57.4246 193.204 57.6981C193.672 57.9574 194.055 58.3472 194.306 58.8201C194.563 59.3423 194.696 59.9164 194.696 60.4983C194.696 61.0802 194.563 61.6543 194.306 62.1764C194.054 62.6472 193.671 63.0347 193.204 63.2919C192.699 63.5628 192.133 63.699 191.561 63.6872H188.273V62.294Z" fill="white"/>
<path d="M198.859 67.843L198.043 67.3629C197.495 67.0418 197.052 66.5679 196.769 65.9991C196.456 65.3631 196.301 64.6612 196.317 63.9527V61.0896C196.301 60.3811 196.456 59.6792 196.769 59.0431C197.052 58.4737 197.495 57.9988 198.043 57.6761C198.622 57.3433 199.281 57.174 199.949 57.1862C200.522 57.1799 201.087 57.3116 201.598 57.57C202.101 57.8251 202.533 58.1984 202.859 58.6577C203.204 59.1455 203.438 59.703 203.544 60.2909H202.044C201.956 59.9713 201.8 59.6741 201.589 59.4188C201.384 59.1699 201.127 58.9682 200.837 58.8276C200.521 58.6747 200.171 58.6036 199.82 58.621C199.469 58.6385 199.128 58.7437 198.828 58.9272C198.503 59.1392 198.244 59.4394 198.082 59.7928C197.898 60.1992 197.807 60.6418 197.816 61.088V63.9527C197.807 64.3977 197.898 64.8391 198.082 65.2445C198.242 65.5989 198.502 65.8994 198.828 66.1102C199.165 66.3177 199.554 66.4237 199.949 66.4156C200.257 66.4157 200.562 66.3494 200.842 66.2212C201.131 66.0885 201.387 65.892 201.589 65.6463C201.806 65.3831 201.962 65.0745 202.044 64.7431H203.544C203.438 65.3319 203.202 65.8897 202.854 66.3764C202.527 66.8347 202.094 67.2077 201.592 67.4641C201.083 67.7217 200.519 67.8534 199.949 67.8479L198.859 67.843Z" fill="white"/>
<path d="M205.477 57.2998H206.947V67.7346H205.477V57.2998ZM206.188 61.8565H209.454V63.2497H206.188V61.8565ZM208.161 63.1419L209.446 62.3873L213.472 67.7346H211.442L208.161 63.1419ZM208.161 62.0068L211.189 57.2998H213.034L208.907 63.2922L208.161 62.0068Z" fill="white"/>
<path d="M217.749 57.2998H218.999L222.845 67.7346H221.267L218.375 59.3152L215.484 67.7346H213.905L217.749 57.2998ZM215.675 64.0532H221.166V65.4448H215.675V64.0532Z" fill="white"/>
<path d="M226.628 62.8847L228.085 63.2113L225.551 67.7321H223.814L226.628 62.8847ZM226.025 63.538L225.341 63.1509C224.887 62.897 224.516 62.5169 224.274 62.0566C224.025 61.546 223.895 60.9852 223.895 60.4169C223.895 59.8486 224.025 59.2878 224.274 58.7771C224.515 58.3167 224.883 57.936 225.336 57.6812C225.823 57.4155 226.372 57.282 226.927 57.2941H230.356V58.6873H226.868C226.604 58.682 226.346 58.7572 226.126 58.9029C225.909 59.054 225.739 59.2642 225.636 59.5088C225.404 60.0918 225.404 60.7419 225.636 61.3249C225.742 61.5704 225.915 61.7806 226.136 61.9309C226.355 62.0752 226.612 62.1503 226.874 62.1465H230.347V63.538H226.019H226.025ZM229.53 57.2925H231V67.7354H229.53V57.2925Z" fill="white"/>
<path d="M131.617 21.1562V86.2358" stroke="white" stroke-linecap="round" stroke-linejoin="round"/>
</svg>
