<svg width="221" height="106" viewBox="0 0 221 106" fill="none" xmlns="http://www.w3.org/2000/svg">
<path fill-rule="evenodd" clip-rule="evenodd" d="M121.913 0.208537C148.969 2.94966 120.366 21.9168 139.124 31.044C183.057 28.4696 207.59 37.6284 215.49 45.7426C223.699 54.1742 222.425 64.3031 213.731 72.6374C205.522 80.507 192.816 87.9957 177.732 93.4735C161.436 99.3913 142.853 105.244 121.913 105.982C100.818 106.724 89.4392 84.7667 71.2259 79.9578C50.4461 74.4713 19.2838 85.3568 7.84654 75.8648C-4.17498 65.8878 -0.811464 53.4248 7.4304 42.71C15.5813 32.1136 26.6265 3.04718 61.9066 18.1719C92.5271 21.068 95.7701 -2.43998 121.913 0.208537Z" fill="#C7B1A4"/>
</svg>
