<svg width="231" height="106" viewBox="0 0 231 106" fill="none" xmlns="http://www.w3.org/2000/svg">
<path d="M61.2634 80.2765H51.6117C51.1299 80.2772 50.6674 80.0867 50.3259 79.7468C41.2887 70.7906 36.851 57.2146 46.4462 49.9101C56.664 42.1305 49.317 32.7152 46.3956 28.2209C45.971 27.5719 46.2076 26.7612 47.0021 26.7612H76.7115C77.5202 26.7612 77.7507 27.5699 77.318 28.2209C74.3966 32.7152 67.0496 42.1305 77.2675 49.9101C86.8626 57.2146 82.4249 70.7906 73.3878 79.7468C73.0462 80.0867 72.5838 80.2772 72.102 80.2765H61.2634Z" fill="#C7B1A4" stroke="black" stroke-width="2" stroke-linecap="round" stroke-linejoin="round"/>
<path d="M107.339 35.2008C107.339 35.2008 95.6642 12.7438 95.153 3.53557C94.8525 -1.85411 111.598 22.3717 117.679 30.7404C117.787 30.8767 117.877 31.0259 117.948 31.1846C128.319 57.8211 114.564 88.686 112.865 94.8237C112.647 95.6158 112.397 96.3981 112.65 97.1821C113.45 99.6548 114.794 102.773 119.444 104.279" stroke="black" stroke-width="2" stroke-linecap="round" stroke-linejoin="round"/>
<path d="M99.5545 18.3964C99.5545 18.3964 89.5084 7.87019 87.5927 9.2813C85.6769 10.6924 99.2099 32.9142 106.265 38.4509" stroke="black" stroke-width="2" stroke-linecap="round" stroke-linejoin="round"/>
<path d="M97.1798 27.7861C97.1798 27.7861 84.4013 16.5054 83.4606 19.9662C82.9086 21.9963 104.276 45.8481 104.276 45.8481" stroke="black" stroke-width="2" stroke-linecap="round" stroke-linejoin="round"/>
<path d="M110.574 65.1202C110.574 65.1202 115.01 36.8978 108.451 34.3794C106.391 33.9678 102.806 52.9248 100.657 61.3278C100.533 61.808 93.1245 78.8818 99.8828 90.5235" stroke="black" stroke-width="2" stroke-linecap="round" stroke-linejoin="round"/>
<path d="M16.1597 71.834C16.1597 71.834 27.8341 94.2943 28.3453 103.502C28.6458 108.892 11.9003 84.6663 5.81971 76.2976C5.71179 76.1613 5.62126 76.0121 5.55023 75.8534C-4.82082 49.2169 8.93429 18.352 10.6361 12.216C10.855 11.4222 11.1049 10.6399 10.8517 9.85594C10.0482 7.38321 8.70401 4.26537 4.05418 2.75952" stroke="black" stroke-width="2" stroke-linecap="round" stroke-linejoin="round"/>
<path d="M23.9439 88.6435C23.9439 88.6435 33.9916 99.1681 35.9057 97.7537C37.8199 96.3394 24.2885 74.1306 17.2329 68.5874" stroke="black" stroke-width="2" stroke-linecap="round" stroke-linejoin="round"/>
<path d="M26.3153 79.2522C26.3153 79.2522 39.0938 90.5346 40.0345 87.0738C40.5866 85.042 19.2189 61.1919 19.2189 61.1919" stroke="black" stroke-width="2" stroke-linecap="round" stroke-linejoin="round"/>
<path d="M12.9228 41.9181C12.9228 41.9181 8.48857 70.1404 15.046 72.6605C17.1055 73.0704 20.6905 54.1135 22.8398 45.7121C22.964 45.2336 30.3707 28.1581 23.614 16.5164" stroke="black" stroke-width="2" stroke-linecap="round" stroke-linejoin="round"/>
<path d="M146.132 39.6609H147.602V50.0956H146.132V39.6609ZM146.849 39.6609H151.981V41.0524H146.849V39.6609Z" fill="black"/>
<path d="M154.945 49.7264C154.394 49.4116 153.946 48.9428 153.656 48.3774C153.342 47.7511 153.186 47.0576 153.201 46.3571V43.3993C153.186 42.6988 153.342 42.0052 153.656 41.379C153.946 40.8136 154.394 40.3448 154.945 40.0299C155.538 39.7167 156.198 39.553 156.868 39.553C157.539 39.553 158.199 39.7167 158.791 40.0299C159.343 40.3448 159.791 40.8136 160.08 41.379C160.394 42.0052 160.551 42.6988 160.536 43.3993V46.3571C160.551 47.0576 160.394 47.7511 160.08 48.3774C159.791 48.9428 159.343 49.4116 158.791 49.7264C158.199 50.0397 157.539 50.2034 156.868 50.2034C156.198 50.2034 155.538 50.0397 154.945 49.7264ZM158.006 48.4705C158.335 48.2752 158.599 47.9879 158.767 47.6441C158.953 47.2585 159.046 46.8342 159.036 46.4061V43.3487C159.045 42.9205 158.953 42.4964 158.767 42.1107C158.598 41.7704 158.333 41.4867 158.006 41.294C157.657 41.1033 157.266 41.0034 156.868 41.0034C156.471 41.0034 156.08 41.1033 155.731 41.294C155.404 41.4872 155.139 41.7708 154.97 42.1107C154.785 42.4967 154.693 42.9207 154.702 43.3487V46.4061C154.693 46.834 154.785 47.2581 154.97 47.6441C155.137 47.9879 155.402 48.2752 155.731 48.4705C156.08 48.6612 156.471 48.7611 156.868 48.7611C157.266 48.7611 157.657 48.6612 158.006 48.4705Z" fill="black"/>
<path d="M162.762 39.6609H164.232V50.0956H162.762V39.6609ZM163.673 44.2601H169.465V45.6532H163.673V44.2601ZM168.69 39.6609H170.16V50.0956H168.69V39.6609Z" fill="black"/>
<path d="M173.9 46.4421C173.431 46.1884 173.053 45.7929 172.821 45.3119C172.559 44.7501 172.432 44.1349 172.45 43.5153V39.6609H173.92V43.5807C173.92 44.1588 174.08 44.6058 174.4 44.9215C174.727 45.2384 175.173 45.3952 175.757 45.3952C176.437 45.3952 176.963 45.2242 177.337 44.8823C177.71 44.5405 177.896 44.0587 177.895 43.4369V42.6105H178.356V43.3863C178.371 44.024 178.26 44.6584 178.029 45.2531C177.844 45.7322 177.517 46.1435 177.092 46.4323C176.65 46.7132 176.134 46.8549 175.61 46.839C175.016 46.8538 174.428 46.7172 173.9 46.4421ZM177.89 39.6609H179.36V50.0956H177.89V39.6609Z" fill="black"/>
<path d="M184.779 39.6609H186.029L189.875 50.0956H188.296L185.403 41.6763L182.511 50.0956H180.933L184.779 39.6609ZM182.705 46.4143H188.196V47.8058H182.705V46.4143Z" fill="black"/>
<path d="M191.456 39.6607H192.926V50.0954H191.456V39.6607ZM192.209 44.6551H195.547C195.84 44.6613 196.129 44.5843 196.38 44.433C196.623 44.2805 196.816 44.061 196.936 43.8009C197.072 43.5071 197.14 43.1858 197.133 42.8618C197.14 42.5346 197.073 42.2101 196.936 41.9129C196.815 41.6527 196.622 41.4327 196.38 41.2792C196.13 41.1248 195.841 41.046 195.547 41.0522H192.209V39.6607H195.497C196.07 39.6483 196.636 39.7857 197.14 40.0592C197.609 40.318 197.992 40.7079 198.242 41.1812C198.5 41.703 198.634 42.2773 198.634 42.8594C198.634 43.4414 198.5 44.0157 198.242 44.5375C197.991 45.0086 197.608 45.3962 197.14 45.653C196.635 45.9239 196.069 46.0601 195.497 46.0483H192.209V44.6551Z" fill="black"/>
<path d="M200.679 39.6609H202.149V50.0956H200.679V39.6609ZM201.59 44.2601H207.382V45.6532H201.59V44.2601ZM206.608 39.6609H208.077V50.0956H206.608V39.6609Z" fill="black"/>
<path d="M213.361 39.6609H214.609L218.457 50.0956H216.877L213.985 41.6763L211.092 50.0956H209.513L213.361 39.6609ZM211.287 46.4143H216.776V47.8058H211.287V46.4143Z" fill="black"/>
<path d="M222.233 45.2451L223.69 45.5718L221.155 50.0926H219.419L222.233 45.2451ZM221.63 45.8984L220.944 45.5113C220.491 45.2569 220.12 44.8769 219.878 44.4171C219.628 43.9064 219.499 43.3456 219.499 42.7773C219.499 42.209 219.628 41.6482 219.878 41.1375C220.118 40.6775 220.487 40.2969 220.939 40.0416C221.427 39.7761 221.975 39.6427 222.53 39.6545H225.96V41.0477H222.473C222.209 41.0421 221.95 41.1174 221.73 41.2633C221.511 41.4138 221.341 41.6242 221.24 41.8692C221.005 42.4517 221.005 43.1028 221.24 43.6854C221.342 43.9299 221.512 44.1402 221.73 44.2913C221.949 44.4359 222.207 44.511 222.47 44.5069H225.957V45.8984H221.63ZM225.132 39.6545H226.602V50.0975H225.132V39.6545Z" fill="black"/>
<path d="M149.235 57.2998H150.606V67.7346H149.175V59.9195L149.247 60.3785L146.678 66.2859H145.658L143.091 60.5222L143.163 59.9195V67.7346H141.735V57.2998H143.106L146.171 64.1888L149.235 57.2998Z" fill="black"/>
<path d="M155.889 57.2998H157.139L160.985 67.7346H159.405L156.513 59.3152L153.621 67.7346H152.041L155.889 57.2998ZM153.815 64.0532H159.301V65.4448H153.815V64.0532Z" fill="black"/>
<path d="M164.609 67.8425L163.792 67.3624C163.245 67.0405 162.802 66.5668 162.518 65.9986C162.206 65.3625 162.051 64.6607 162.066 63.9522V61.0891C162.051 60.3805 162.206 59.6787 162.518 59.0426C162.803 58.4739 163.245 57.9992 163.792 57.6756C164.372 57.343 165.03 57.1736 165.698 57.1857C166.271 57.1796 166.838 57.3112 167.35 57.5695C167.851 57.8251 168.283 58.1983 168.609 58.6572C168.954 59.145 169.187 59.7025 169.293 60.2904H167.794C167.705 59.9708 167.55 59.6736 167.338 59.4183C167.134 59.1691 166.878 58.9673 166.588 58.8271C166.272 58.6742 165.922 58.6031 165.57 58.6205C165.219 58.638 164.878 58.7432 164.578 58.9267C164.252 59.1391 163.994 59.4392 163.832 59.7923C163.648 60.1988 163.557 60.6414 163.567 61.0875V63.9522C163.558 64.3971 163.648 64.8385 163.832 65.244C163.991 65.6029 164.253 65.9061 164.586 66.1148C164.919 66.3234 165.306 66.428 165.698 66.4151C166.007 66.4154 166.311 66.3491 166.592 66.2207C166.881 66.0884 167.136 65.8918 167.338 65.6458C167.555 65.3826 167.711 65.0739 167.794 64.7426H169.293C169.188 65.3312 168.953 65.8891 168.605 66.3759C168.277 66.8346 167.844 67.2076 167.341 67.4636C166.832 67.7214 166.269 67.853 165.698 67.8474L164.609 67.8425Z" fill="black"/>
<path d="M169.935 57.2998H177.299V58.6913H169.935V57.2998ZM172.885 58.154H174.354V67.7346H172.885V58.154Z" fill="black"/>
<path d="M178.737 57.2998H180.206V67.7346H178.737V57.2998ZM179.447 57.2998H185.433V58.6913H179.44L179.447 57.2998ZM179.447 61.8565H184.65V63.2497H179.447V61.8565ZM179.447 66.343H185.433V67.7346H179.44L179.447 66.343Z" fill="black"/>
<path d="M187.52 57.2996H188.99V67.7343H187.52V57.2996ZM188.273 62.294H191.61C191.903 62.3007 192.192 62.2236 192.443 62.0719C192.685 61.9196 192.879 61.7 192.999 61.4398C193.135 61.1457 193.203 60.8247 193.197 60.5007C193.203 60.1736 193.136 59.8492 192.999 59.5518C192.878 59.2915 192.685 59.0716 192.443 58.9181C192.193 58.7633 191.903 58.6844 191.61 58.6911H188.273V57.2996H191.561C192.134 57.2872 192.7 57.4246 193.204 57.6981C193.672 57.9574 194.055 58.3472 194.306 58.8201C194.563 59.3423 194.696 59.9164 194.696 60.4983C194.696 61.0802 194.563 61.6543 194.306 62.1764C194.054 62.6472 193.671 63.0347 193.204 63.2919C192.699 63.5628 192.133 63.699 191.561 63.6872H188.273V62.294Z" fill="black"/>
<path d="M198.859 67.8425L198.043 67.3624C197.495 67.0413 197.052 66.5674 196.769 65.9986C196.456 65.3626 196.301 64.6607 196.317 63.9522V61.0891C196.301 60.3806 196.456 59.6787 196.769 59.0427C197.052 58.4732 197.495 57.9983 198.043 57.6756C198.622 57.3428 199.281 57.1735 199.949 57.1857C200.522 57.1795 201.087 57.3111 201.598 57.5695C202.101 57.8246 202.533 58.1979 202.859 58.6572C203.204 59.145 203.438 59.7025 203.544 60.2905H202.044C201.956 59.9708 201.8 59.6736 201.589 59.4183C201.384 59.1694 201.127 58.9677 200.837 58.8271C200.521 58.6742 200.171 58.6032 199.82 58.6206C199.469 58.638 199.128 58.7432 198.828 58.9267C198.503 59.1387 198.244 59.4389 198.082 59.7923C197.898 60.1987 197.807 60.6413 197.816 61.0875V63.9522C197.807 64.3973 197.898 64.8386 198.082 65.2441C198.242 65.5984 198.502 65.8989 198.828 66.1097C199.165 66.3172 199.554 66.4232 199.949 66.4151C200.257 66.4152 200.562 66.3489 200.842 66.2207C201.131 66.088 201.387 65.8915 201.589 65.6458C201.806 65.3826 201.962 65.074 202.044 64.7427H203.544C203.438 65.3314 203.202 65.8892 202.854 66.3759C202.527 66.8342 202.094 67.2072 201.592 67.4636C201.083 67.7212 200.519 67.8529 199.949 67.8474L198.859 67.8425Z" fill="black"/>
<path d="M205.477 57.2998H206.947V67.7346H205.477V57.2998ZM206.188 61.8565H209.454V63.2497H206.188V61.8565ZM208.161 63.1419L209.446 62.3873L213.472 67.7346H211.442L208.161 63.1419ZM208.161 62.0068L211.189 57.2998H213.034L208.907 63.2922L208.161 62.0068Z" fill="black"/>
<path d="M217.75 57.2998H218.999L222.845 67.7346H221.268L218.375 59.3152L215.484 67.7346H213.905L217.75 57.2998ZM215.675 64.0532H221.166V65.4448H215.675V64.0532Z" fill="black"/>
<path d="M226.628 62.8842L228.085 63.2108L225.551 67.7316H223.814L226.628 62.8842ZM226.025 63.5375L225.341 63.1504C224.887 62.8965 224.516 62.5164 224.274 62.0561C224.025 61.5455 223.895 60.9847 223.895 60.4164C223.895 59.8481 224.025 59.2873 224.274 58.7766C224.515 58.3162 224.883 57.9355 225.336 57.6807C225.823 57.415 226.372 57.2815 226.927 57.2936H230.356V58.6868H226.868C226.605 58.6815 226.346 58.7567 226.126 58.9024C225.909 59.0535 225.739 59.2637 225.636 59.5083C225.404 60.0913 225.404 60.7414 225.636 61.3245C225.742 61.5699 225.915 61.7801 226.136 61.9304C226.355 62.0747 226.612 62.1498 226.874 62.146H230.347V63.5375H226.019H226.025ZM229.53 57.292H231V67.7349H229.53V57.292Z" fill="black"/>
<path d="M131.617 21.1562V86.2358" stroke="black" stroke-linecap="round" stroke-linejoin="round"/>
</svg>
