<svg width="619" height="142" viewBox="0 0 619 142" fill="none" xmlns="http://www.w3.org/2000/svg">
<path fill-rule="evenodd" clip-rule="evenodd" d="M341.466 0.279361C417.248 3.95143 337.134 29.3603 389.672 41.5872C512.726 38.1385 581.44 50.4079 603.567 61.2778C626.56 72.573 622.99 86.1419 598.641 97.3067C575.649 107.849 540.06 117.881 497.81 125.219C452.168 133.147 400.118 140.987 341.466 141.975C282.383 142.971 250.511 113.555 199.497 107.113C141.295 99.7635 54.0122 114.346 21.9774 101.63C-11.6937 88.2648 -2.27283 71.569 20.8118 57.2153C43.6416 43.0201 74.5783 4.08207 173.395 24.3435C259.16 28.2231 268.243 -3.26866 341.466 0.279361Z" fill="#C7B1A4"/>
</svg>
